<?xml version="1.0" encoding="UTF-8" standalone="no"?>
<!DOCTYPE svg PUBLIC "-//W3C//DTD SVG 1.1//EN"
 "http://www.w3.org/Graphics/SVG/1.1/DTD/svg11.dtd">
<!-- Generated by graphviz version 2.40.1 (20161225.0304)
 -->
<!-- Title: domains Pages: 1 -->
<svg width="309pt" height="405pt"
 viewBox="0.00 0.00 309.00 405.00" xmlns="http://www.w3.org/2000/svg" xmlns:xlink="http://www.w3.org/1999/xlink">
<g id="graph0" class="graph" transform="scale(1 1) rotate(0) translate(4 401)">
<title>domains</title>
<polygon fill="#ffffff" stroke="transparent" points="-4,4 -4,-401 305,-401 305,4 -4,4"/>
<!-- domains -->
<g id="node1" class="node">
<title>domains</title>
<polygon fill="#efefef" stroke="transparent" points="46.5,-315.5 46.5,-350.5 255.5,-350.5 255.5,-315.5 46.5,-315.5"/>
<polygon fill="none" stroke="#000000" points="46.5,-315.5 46.5,-350.5 255.5,-350.5 255.5,-315.5 46.5,-315.5"/>
<text text-anchor="start" x="53.2104" y="-328.3" font-family="Arial Bold" font-size="18.00" fill="#000000">domains</text>
<text text-anchor="start" x="121.2216" y="-328.3" font-family="Arial" font-size="14.00" fill="#000000">    </text>
<text text-anchor="start" x="155.4264" y="-328.3" font-family="Arial" font-size="14.00" fill="#666666">[BASE TABLE]</text>
<polygon fill="none" stroke="#000000" points="46.5,-285.5 46.5,-315.5 255.5,-315.5 255.5,-285.5 46.5,-285.5"/>
<text text-anchor="start" x="53.5" y="-296.9" font-family="Arial" font-size="14.00" fill="#000000">id </text>
<text text-anchor="start" x="68.2798" y="-296.9" font-family="Arial" font-size="14.00" fill="#666666">[int]</text>
<polygon fill="none" stroke="#000000" points="46.5,-255.5 46.5,-285.5 255.5,-285.5 255.5,-255.5 46.5,-255.5"/>
<text text-anchor="start" x="53.5" y="-266.9" font-family="Arial" font-size="14.00" fill="#000000">name </text>
<text text-anchor="start" x="92.399" y="-266.9" font-family="Arial" font-size="14.00" fill="#666666">[varchar(255)]</text>
<polygon fill="none" stroke="#000000" points="46.5,-225.5 46.5,-255.5 255.5,-255.5 255.5,-225.5 46.5,-225.5"/>
<text text-anchor="start" x="53.5" y="-236.9" font-family="Arial" font-size="14.00" fill="#000000">master </text>
<text text-anchor="start" x="100.1676" y="-236.9" font-family="Arial" font-size="14.00" fill="#666666">[varchar(128)]</text>
<polygon fill="none" stroke="#000000" points="46.5,-195.5 46.5,-225.5 255.5,-225.5 255.5,-195.5 46.5,-195.5"/>
<text text-anchor="start" x="53.5" y="-206.9" font-family="Arial" font-size="14.00" fill="#000000">last_check </text>
<text text-anchor="start" x="123.5182" y="-206.9" font-family="Arial" font-size="14.00" fill="#666666">[int]</text>
<polygon fill="none" stroke="#000000" points="46.5,-165.5 46.5,-195.5 255.5,-195.5 255.5,-165.5 46.5,-165.5"/>
<text text-anchor="start" x="53.5" y="-176.9" font-family="Arial" font-size="14.00" fill="#000000">type </text>
<text text-anchor="start" x="83.8464" y="-176.9" font-family="Arial" font-size="14.00" fill="#666666">[varchar(8)]</text>
<polygon fill="none" stroke="#000000" points="46.5,-135.5 46.5,-165.5 255.5,-165.5 255.5,-135.5 46.5,-135.5"/>
<text text-anchor="start" x="53.5" y="-146.9" font-family="Arial" font-size="14.00" fill="#000000">notified_serial </text>
<text text-anchor="start" x="143.737" y="-146.9" font-family="Arial" font-size="14.00" fill="#666666">[int unsigned]</text>
<polygon fill="none" stroke="#000000" points="46.5,-105.5 46.5,-135.5 255.5,-135.5 255.5,-105.5 46.5,-105.5"/>
<text text-anchor="start" x="53.5" y="-116.9" font-family="Arial" font-size="14.00" fill="#000000">account </text>
<text text-anchor="start" x="106.4116" y="-116.9" font-family="Arial" font-size="14.00" fill="#666666">[varchar(40)]</text>
<polygon fill="none" stroke="#000000" points="46.5,-75.5 46.5,-105.5 255.5,-105.5 255.5,-75.5 46.5,-75.5"/>
<text text-anchor="start" x="53.5" y="-86.9" font-family="Arial" font-size="14.00" fill="#000000">options </text>
<text text-anchor="start" x="102.5182" y="-86.9" font-family="Arial" font-size="14.00" fill="#666666">[varchar(64000)]</text>
<polygon fill="none" stroke="#000000" points="46.5,-45.5 46.5,-75.5 255.5,-75.5 255.5,-45.5 46.5,-45.5"/>
<text text-anchor="start" x="53.5" y="-56.9" font-family="Arial" font-size="14.00" fill="#000000">catalog </text>
<text text-anchor="start" x="102.5182" y="-56.9" font-family="Arial" font-size="14.00" fill="#666666">[varchar(255)]</text>
<polygon fill="none" stroke="#000000" stroke-width="3" points="44.5,-44.5 44.5,-352.5 256.5,-352.5 256.5,-44.5 44.5,-44.5"/>
</g>
</g>
</svg>
