<?xml version="1.0" encoding="UTF-8" standalone="no"?>
<!DOCTYPE svg PUBLIC "-//W3C//DTD SVG 1.1//EN"
 "http://www.w3.org/Graphics/SVG/1.1/DTD/svg11.dtd">
<!-- Generated by graphviz version 2.40.1 (20161225.0304)
 -->
<!-- Title: records Pages: 1 -->
<svg width="301pt" height="435pt"
 viewBox="0.00 0.00 301.00 435.00" xmlns="http://www.w3.org/2000/svg" xmlns:xlink="http://www.w3.org/1999/xlink">
<g id="graph0" class="graph" transform="scale(1 1) rotate(0) translate(4 431)">
<title>records</title>
<polygon fill="#ffffff" stroke="transparent" points="-4,4 -4,-431 297,-431 297,4 -4,4"/>
<!-- records -->
<g id="node1" class="node">
<title>records</title>
<polygon fill="#efefef" stroke="transparent" points="46.5,-345.5 46.5,-380.5 247.5,-380.5 247.5,-345.5 46.5,-345.5"/>
<polygon fill="none" stroke="#000000" points="46.5,-345.5 46.5,-380.5 247.5,-380.5 247.5,-345.5 46.5,-345.5"/>
<text text-anchor="start" x="53.2145" y="-358.3" font-family="Arial Bold" font-size="18.00" fill="#000000">records</text>
<text text-anchor="start" x="113.2175" y="-358.3" font-family="Arial" font-size="14.00" fill="#000000">    </text>
<text text-anchor="start" x="147.4223" y="-358.3" font-family="Arial" font-size="14.00" fill="#666666">[BASE TABLE]</text>
<polygon fill="none" stroke="#000000" points="46.5,-315.5 46.5,-345.5 247.5,-345.5 247.5,-315.5 46.5,-315.5"/>
<text text-anchor="start" x="53.5" y="-326.9" font-family="Arial" font-size="14.00" fill="#000000">id </text>
<text text-anchor="start" x="68.2798" y="-326.9" font-family="Arial" font-size="14.00" fill="#666666">[bigint]</text>
<polygon fill="none" stroke="#000000" points="46.5,-285.5 46.5,-315.5 247.5,-315.5 247.5,-285.5 46.5,-285.5"/>
<text text-anchor="start" x="53.5" y="-296.9" font-family="Arial" font-size="14.00" fill="#000000">domain_id </text>
<text text-anchor="start" x="121.96" y="-296.9" font-family="Arial" font-size="14.00" fill="#666666">[int]</text>
<polygon fill="none" stroke="#000000" points="46.5,-255.5 46.5,-285.5 247.5,-285.5 247.5,-255.5 46.5,-255.5"/>
<text text-anchor="start" x="53.5" y="-266.9" font-family="Arial" font-size="14.00" fill="#000000">name </text>
<text text-anchor="start" x="92.399" y="-266.9" font-family="Arial" font-size="14.00" fill="#666666">[varchar(255)]</text>
<polygon fill="none" stroke="#000000" points="46.5,-225.5 46.5,-255.5 247.5,-255.5 247.5,-225.5 46.5,-225.5"/>
<text text-anchor="start" x="53.5" y="-236.9" font-family="Arial" font-size="14.00" fill="#000000">type </text>
<text text-anchor="start" x="83.8464" y="-236.9" font-family="Arial" font-size="14.00" fill="#666666">[varchar(10)]</text>
<polygon fill="none" stroke="#000000" points="46.5,-195.5 46.5,-225.5 247.5,-225.5 247.5,-195.5 46.5,-195.5"/>
<text text-anchor="start" x="53.5" y="-206.9" font-family="Arial" font-size="14.00" fill="#000000">content </text>
<text text-anchor="start" x="103.3022" y="-206.9" font-family="Arial" font-size="14.00" fill="#666666">[varchar(64000)]</text>
<polygon fill="none" stroke="#000000" points="46.5,-165.5 46.5,-195.5 247.5,-195.5 247.5,-165.5 46.5,-165.5"/>
<text text-anchor="start" x="53.5" y="-176.9" font-family="Arial" font-size="14.00" fill="#000000">ttl </text>
<text text-anchor="start" x="68.2784" y="-176.9" font-family="Arial" font-size="14.00" fill="#666666">[int]</text>
<polygon fill="none" stroke="#000000" points="46.5,-135.5 46.5,-165.5 247.5,-165.5 247.5,-135.5 46.5,-135.5"/>
<text text-anchor="start" x="53.5" y="-146.9" font-family="Arial" font-size="14.00" fill="#000000">prio </text>
<text text-anchor="start" x="80.723" y="-146.9" font-family="Arial" font-size="14.00" fill="#666666">[int]</text>
<polygon fill="none" stroke="#000000" points="46.5,-105.5 46.5,-135.5 247.5,-135.5 247.5,-105.5 46.5,-105.5"/>
<text text-anchor="start" x="53.5" y="-116.9" font-family="Arial" font-size="14.00" fill="#000000">disabled </text>
<text text-anchor="start" x="109.5168" y="-116.9" font-family="Arial" font-size="14.00" fill="#666666">[tinyint(1)]</text>
<polygon fill="none" stroke="#000000" points="46.5,-75.5 46.5,-105.5 247.5,-105.5 247.5,-75.5 46.5,-75.5"/>
<text text-anchor="start" x="53.5" y="-86.9" font-family="Arial" font-size="14.00" fill="#000000">ordername </text>
<text text-anchor="start" x="125.068" y="-86.9" font-family="Arial" font-size="14.00" fill="#666666">[varchar(255)]</text>
<polygon fill="none" stroke="#000000" points="46.5,-45.5 46.5,-75.5 247.5,-75.5 247.5,-45.5 46.5,-45.5"/>
<text text-anchor="start" x="53.5" y="-56.9" font-family="Arial" font-size="14.00" fill="#000000">auth </text>
<text text-anchor="start" x="84.629" y="-56.9" font-family="Arial" font-size="14.00" fill="#666666">[tinyint(1)]</text>
<polygon fill="none" stroke="#000000" stroke-width="3" points="44.5,-44.5 44.5,-382.5 248.5,-382.5 248.5,-44.5 44.5,-44.5"/>
</g>
</g>
</svg>
