<?xml version="1.0" encoding="UTF-8" standalone="no"?>
<!DOCTYPE svg PUBLIC "-//W3C//DTD SVG 1.1//EN"
 "http://www.w3.org/Graphics/SVG/1.1/DTD/svg11.dtd">
<!-- Generated by graphviz version 2.40.1 (20161225.0304)
 -->
<!-- Title: isudns Pages: 1 -->
<svg width="2321pt" height="429pt"
 viewBox="0.00 0.00 2321.00 429.00" xmlns="http://www.w3.org/2000/svg" xmlns:xlink="http://www.w3.org/1999/xlink">
<g id="graph0" class="graph" transform="scale(1 1) rotate(0) translate(4 425)">
<title>isudns</title>
<polygon fill="#ffffff" stroke="transparent" points="-4,4 -4,-425 2317,-425 2317,4 -4,4"/>
<!-- comments -->
<g id="node1" class="node">
<title>comments</title>
<polygon fill="#efefef" stroke="transparent" points="43,-297.5 43,-332.5 267,-332.5 267,-297.5 43,-297.5"/>
<polygon fill="none" stroke="#000000" points="43,-297.5 43,-332.5 267,-332.5 267,-297.5 43,-297.5"/>
<text text-anchor="start" x="49.7134" y="-310.3" font-family="Arial Bold" font-size="18.00" fill="#000000">comments</text>
<text text-anchor="start" x="132.7186" y="-310.3" font-family="Arial" font-size="14.00" fill="#000000">    </text>
<text text-anchor="start" x="166.9234" y="-310.3" font-family="Arial" font-size="14.00" fill="#666666">[BASE TABLE]</text>
<polygon fill="none" stroke="#000000" points="43,-267.5 43,-297.5 267,-297.5 267,-267.5 43,-267.5"/>
<text text-anchor="start" x="50" y="-278.9" font-family="Arial" font-size="14.00" fill="#000000">id    </text>
<text text-anchor="start" x="95.094" y="-278.9" font-family="Arial" font-size="14.00" fill="#666666">[int]</text>
<polygon fill="none" stroke="#000000" points="43,-237.5 43,-267.5 267,-267.5 267,-237.5 43,-237.5"/>
<text text-anchor="start" x="50" y="-248.9" font-family="Arial" font-size="14.00" fill="#000000">domain_id    </text>
<text text-anchor="start" x="148.7742" y="-248.9" font-family="Arial" font-size="14.00" fill="#666666">[int]</text>
<polygon fill="none" stroke="#000000" points="43,-207.5 43,-237.5 267,-237.5 267,-207.5 43,-207.5"/>
<text text-anchor="start" x="50" y="-218.9" font-family="Arial" font-size="14.00" fill="#000000">name    </text>
<text text-anchor="start" x="119.2132" y="-218.9" font-family="Arial" font-size="14.00" fill="#666666">[varchar(255)]</text>
<polygon fill="none" stroke="#000000" points="43,-177.5 43,-207.5 267,-207.5 267,-177.5 43,-177.5"/>
<text text-anchor="start" x="50" y="-188.9" font-family="Arial" font-size="14.00" fill="#000000">type    </text>
<text text-anchor="start" x="110.6606" y="-188.9" font-family="Arial" font-size="14.00" fill="#666666">[varchar(10)]</text>
<polygon fill="none" stroke="#000000" points="43,-147.5 43,-177.5 267,-177.5 267,-147.5 43,-147.5"/>
<text text-anchor="start" x="50" y="-158.9" font-family="Arial" font-size="14.00" fill="#000000">modified_at    </text>
<text text-anchor="start" x="156.5554" y="-158.9" font-family="Arial" font-size="14.00" fill="#666666">[int]</text>
<polygon fill="none" stroke="#000000" points="43,-117.5 43,-147.5 267,-147.5 267,-117.5 43,-117.5"/>
<text text-anchor="start" x="50" y="-128.9" font-family="Arial" font-size="14.00" fill="#000000">account    </text>
<text text-anchor="start" x="133.2258" y="-128.9" font-family="Arial" font-size="14.00" fill="#666666">[varchar(40)]</text>
<polygon fill="none" stroke="#000000" points="43,-87.5 43,-117.5 267,-117.5 267,-87.5 43,-87.5"/>
<text text-anchor="start" x="50" y="-98.9" font-family="Arial" font-size="14.00" fill="#000000">comment    </text>
<text text-anchor="start" x="141.7644" y="-98.9" font-family="Arial" font-size="14.00" fill="#666666">[text]</text>
</g>
<!-- cryptokeys -->
<g id="node2" class="node">
<title>cryptokeys</title>
<polygon fill="#efefef" stroke="transparent" points="372,-282.5 372,-317.5 599,-317.5 599,-282.5 372,-282.5"/>
<polygon fill="none" stroke="#000000" points="372,-282.5 372,-317.5 599,-317.5 599,-282.5 372,-282.5"/>
<text text-anchor="start" x="378.7095" y="-295.3" font-family="Arial Bold" font-size="18.00" fill="#000000">cryptokeys</text>
<text text-anchor="start" x="464.7225" y="-295.3" font-family="Arial" font-size="14.00" fill="#000000">    </text>
<text text-anchor="start" x="498.9273" y="-295.3" font-family="Arial" font-size="14.00" fill="#666666">[BASE TABLE]</text>
<polygon fill="none" stroke="#000000" points="372,-252.5 372,-282.5 599,-282.5 599,-252.5 372,-252.5"/>
<text text-anchor="start" x="379" y="-263.9" font-family="Arial" font-size="14.00" fill="#000000">id    </text>
<text text-anchor="start" x="424.094" y="-263.9" font-family="Arial" font-size="14.00" fill="#666666">[int]</text>
<polygon fill="none" stroke="#000000" points="372,-222.5 372,-252.5 599,-252.5 599,-222.5 372,-222.5"/>
<text text-anchor="start" x="379" y="-233.9" font-family="Arial" font-size="14.00" fill="#000000">domain_id    </text>
<text text-anchor="start" x="477.7742" y="-233.9" font-family="Arial" font-size="14.00" fill="#666666">[int]</text>
<polygon fill="none" stroke="#000000" points="372,-192.5 372,-222.5 599,-222.5 599,-192.5 372,-192.5"/>
<text text-anchor="start" x="379" y="-203.9" font-family="Arial" font-size="14.00" fill="#000000">flags    </text>
<text text-anchor="start" x="442.7672" y="-203.9" font-family="Arial" font-size="14.00" fill="#666666">[int]</text>
<polygon fill="none" stroke="#000000" points="372,-162.5 372,-192.5 599,-192.5 599,-162.5 372,-162.5"/>
<text text-anchor="start" x="379" y="-173.9" font-family="Arial" font-size="14.00" fill="#000000">active    </text>
<text text-anchor="start" x="449.7672" y="-173.9" font-family="Arial" font-size="14.00" fill="#666666">[tinyint(1)]</text>
<polygon fill="none" stroke="#000000" points="372,-132.5 372,-162.5 599,-162.5 599,-132.5 372,-132.5"/>
<text text-anchor="start" x="379" y="-143.9" font-family="Arial" font-size="14.00" fill="#000000">published    </text>
<text text-anchor="start" x="473.1136" y="-143.9" font-family="Arial" font-size="14.00" fill="#666666">[tinyint(1)]</text>
<polygon fill="none" stroke="#000000" points="372,-102.5 372,-132.5 599,-132.5 599,-102.5 372,-102.5"/>
<text text-anchor="start" x="379" y="-113.9" font-family="Arial" font-size="14.00" fill="#000000">content    </text>
<text text-anchor="start" x="459.1164" y="-113.9" font-family="Arial" font-size="14.00" fill="#666666">[text]</text>
</g>
<!-- domainmetadata -->
<g id="node3" class="node">
<title>domainmetadata</title>
<polygon fill="#efefef" stroke="transparent" points="703,-252.5 703,-287.5 978,-287.5 978,-252.5 703,-252.5"/>
<polygon fill="none" stroke="#000000" points="703,-252.5 703,-287.5 978,-287.5 978,-252.5 703,-252.5"/>
<text text-anchor="start" x="709.6966" y="-265.3" font-family="Arial Bold" font-size="18.00" fill="#000000">domainmetadata</text>
<text text-anchor="start" x="843.7354" y="-265.3" font-family="Arial" font-size="14.00" fill="#000000">    </text>
<text text-anchor="start" x="877.9402" y="-265.3" font-family="Arial" font-size="14.00" fill="#666666">[BASE TABLE]</text>
<polygon fill="none" stroke="#000000" points="703,-222.5 703,-252.5 978,-252.5 978,-222.5 703,-222.5"/>
<text text-anchor="start" x="710" y="-233.9" font-family="Arial" font-size="14.00" fill="#000000">id    </text>
<text text-anchor="start" x="755.094" y="-233.9" font-family="Arial" font-size="14.00" fill="#666666">[int]</text>
<polygon fill="none" stroke="#000000" points="703,-192.5 703,-222.5 978,-222.5 978,-192.5 703,-192.5"/>
<text text-anchor="start" x="710" y="-203.9" font-family="Arial" font-size="14.00" fill="#000000">domain_id    </text>
<text text-anchor="start" x="808.7742" y="-203.9" font-family="Arial" font-size="14.00" fill="#666666">[int]</text>
<polygon fill="none" stroke="#000000" points="703,-162.5 703,-192.5 978,-192.5 978,-162.5 703,-162.5"/>
<text text-anchor="start" x="710" y="-173.9" font-family="Arial" font-size="14.00" fill="#000000">kind    </text>
<text text-anchor="start" x="769.8766" y="-173.9" font-family="Arial" font-size="14.00" fill="#666666">[varchar(32)]</text>
<polygon fill="none" stroke="#000000" points="703,-132.5 703,-162.5 978,-162.5 978,-132.5 703,-132.5"/>
<text text-anchor="start" x="710" y="-143.9" font-family="Arial" font-size="14.00" fill="#000000">content    </text>
<text text-anchor="start" x="790.1164" y="-143.9" font-family="Arial" font-size="14.00" fill="#666666">[text]</text>
</g>
<!-- domains -->
<g id="node4" class="node">
<title>domains</title>
<polygon fill="#efefef" stroke="transparent" points="1082,-327.5 1082,-362.5 1299,-362.5 1299,-327.5 1082,-327.5"/>
<polygon fill="none" stroke="#000000" points="1082,-327.5 1082,-362.5 1299,-362.5 1299,-327.5 1082,-327.5"/>
<text text-anchor="start" x="1092.7104" y="-340.3" font-family="Arial Bold" font-size="18.00" fill="#000000">domains</text>
<text text-anchor="start" x="1160.7216" y="-340.3" font-family="Arial" font-size="14.00" fill="#000000">    </text>
<text text-anchor="start" x="1194.9264" y="-340.3" font-family="Arial" font-size="14.00" fill="#666666">[BASE TABLE]</text>
<polygon fill="none" stroke="#000000" points="1082,-297.5 1082,-327.5 1299,-327.5 1299,-297.5 1082,-297.5"/>
<text text-anchor="start" x="1089" y="-308.9" font-family="Arial" font-size="14.00" fill="#000000">id    </text>
<text text-anchor="start" x="1134.094" y="-308.9" font-family="Arial" font-size="14.00" fill="#666666">[int]</text>
<polygon fill="none" stroke="#000000" points="1082,-267.5 1082,-297.5 1299,-297.5 1299,-267.5 1082,-267.5"/>
<text text-anchor="start" x="1089" y="-278.9" font-family="Arial" font-size="14.00" fill="#000000">name    </text>
<text text-anchor="start" x="1158.2132" y="-278.9" font-family="Arial" font-size="14.00" fill="#666666">[varchar(255)]</text>
<polygon fill="none" stroke="#000000" points="1082,-237.5 1082,-267.5 1299,-267.5 1299,-237.5 1082,-237.5"/>
<text text-anchor="start" x="1089" y="-248.9" font-family="Arial" font-size="14.00" fill="#000000">master    </text>
<text text-anchor="start" x="1165.9818" y="-248.9" font-family="Arial" font-size="14.00" fill="#666666">[varchar(128)]</text>
<polygon fill="none" stroke="#000000" points="1082,-207.5 1082,-237.5 1299,-237.5 1299,-207.5 1082,-207.5"/>
<text text-anchor="start" x="1089" y="-218.9" font-family="Arial" font-size="14.00" fill="#000000">last_check    </text>
<text text-anchor="start" x="1189.3324" y="-218.9" font-family="Arial" font-size="14.00" fill="#666666">[int]</text>
<polygon fill="none" stroke="#000000" points="1082,-177.5 1082,-207.5 1299,-207.5 1299,-177.5 1082,-177.5"/>
<text text-anchor="start" x="1089" y="-188.9" font-family="Arial" font-size="14.00" fill="#000000">type    </text>
<text text-anchor="start" x="1149.6606" y="-188.9" font-family="Arial" font-size="14.00" fill="#666666">[varchar(8)]</text>
<polygon fill="none" stroke="#000000" points="1082,-147.5 1082,-177.5 1299,-177.5 1299,-147.5 1082,-147.5"/>
<text text-anchor="start" x="1088.5975" y="-158.9" font-family="Arial" font-size="14.00" fill="#000000">notified_serial    </text>
<text text-anchor="start" x="1209.1487" y="-158.9" font-family="Arial" font-size="14.00" fill="#666666">[int unsigned]</text>
<polygon fill="none" stroke="#000000" points="1082,-117.5 1082,-147.5 1299,-147.5 1299,-117.5 1082,-117.5"/>
<text text-anchor="start" x="1089" y="-128.9" font-family="Arial" font-size="14.00" fill="#000000">account    </text>
<text text-anchor="start" x="1172.2258" y="-128.9" font-family="Arial" font-size="14.00" fill="#666666">[varchar(40)]</text>
<polygon fill="none" stroke="#000000" points="1082,-87.5 1082,-117.5 1299,-117.5 1299,-87.5 1082,-87.5"/>
<text text-anchor="start" x="1089" y="-98.9" font-family="Arial" font-size="14.00" fill="#000000">options    </text>
<text text-anchor="start" x="1168.3324" y="-98.9" font-family="Arial" font-size="14.00" fill="#666666">[varchar(64000)]</text>
<polygon fill="none" stroke="#000000" points="1082,-57.5 1082,-87.5 1299,-87.5 1299,-57.5 1082,-57.5"/>
<text text-anchor="start" x="1089" y="-68.9" font-family="Arial" font-size="14.00" fill="#000000">catalog    </text>
<text text-anchor="start" x="1168.3324" y="-68.9" font-family="Arial" font-size="14.00" fill="#666666">[varchar(255)]</text>
</g>
<!-- records -->
<g id="node5" class="node">
<title>records</title>
<polygon fill="#efefef" stroke="transparent" points="1403,-342.5 1403,-377.5 1606,-377.5 1606,-342.5 1403,-342.5"/>
<polygon fill="none" stroke="#000000" points="1403,-342.5 1403,-377.5 1606,-377.5 1606,-342.5 1403,-342.5"/>
<text text-anchor="start" x="1410.7145" y="-355.3" font-family="Arial Bold" font-size="18.00" fill="#000000">records</text>
<text text-anchor="start" x="1470.7175" y="-355.3" font-family="Arial" font-size="14.00" fill="#000000">    </text>
<text text-anchor="start" x="1504.9223" y="-355.3" font-family="Arial" font-size="14.00" fill="#666666">[BASE TABLE]</text>
<polygon fill="none" stroke="#000000" points="1403,-312.5 1403,-342.5 1606,-342.5 1606,-312.5 1403,-312.5"/>
<text text-anchor="start" x="1410" y="-323.9" font-family="Arial" font-size="14.00" fill="#000000">id    </text>
<text text-anchor="start" x="1455.094" y="-323.9" font-family="Arial" font-size="14.00" fill="#666666">[bigint]</text>
<polygon fill="none" stroke="#000000" points="1403,-282.5 1403,-312.5 1606,-312.5 1606,-282.5 1403,-282.5"/>
<text text-anchor="start" x="1410" y="-293.9" font-family="Arial" font-size="14.00" fill="#000000">domain_id    </text>
<text text-anchor="start" x="1508.7742" y="-293.9" font-family="Arial" font-size="14.00" fill="#666666">[int]</text>
<polygon fill="none" stroke="#000000" points="1403,-252.5 1403,-282.5 1606,-282.5 1606,-252.5 1403,-252.5"/>
<text text-anchor="start" x="1410" y="-263.9" font-family="Arial" font-size="14.00" fill="#000000">name    </text>
<text text-anchor="start" x="1479.2132" y="-263.9" font-family="Arial" font-size="14.00" fill="#666666">[varchar(255)]</text>
<polygon fill="none" stroke="#000000" points="1403,-222.5 1403,-252.5 1606,-252.5 1606,-222.5 1403,-222.5"/>
<text text-anchor="start" x="1410" y="-233.9" font-family="Arial" font-size="14.00" fill="#000000">type    </text>
<text text-anchor="start" x="1470.6606" y="-233.9" font-family="Arial" font-size="14.00" fill="#666666">[varchar(10)]</text>
<polygon fill="none" stroke="#000000" points="1403,-192.5 1403,-222.5 1606,-222.5 1606,-192.5 1403,-192.5"/>
<text text-anchor="start" x="1410" y="-203.9" font-family="Arial" font-size="14.00" fill="#000000">content    </text>
<text text-anchor="start" x="1490.1164" y="-203.9" font-family="Arial" font-size="14.00" fill="#666666">[varchar(64000)]</text>
<polygon fill="none" stroke="#000000" points="1403,-162.5 1403,-192.5 1606,-192.5 1606,-162.5 1403,-162.5"/>
<text text-anchor="start" x="1410" y="-173.9" font-family="Arial" font-size="14.00" fill="#000000">ttl    </text>
<text text-anchor="start" x="1455.0926" y="-173.9" font-family="Arial" font-size="14.00" fill="#666666">[int]</text>
<polygon fill="none" stroke="#000000" points="1403,-132.5 1403,-162.5 1606,-162.5 1606,-132.5 1403,-132.5"/>
<text text-anchor="start" x="1410" y="-143.9" font-family="Arial" font-size="14.00" fill="#000000">prio    </text>
<text text-anchor="start" x="1467.5372" y="-143.9" font-family="Arial" font-size="14.00" fill="#666666">[int]</text>
<polygon fill="none" stroke="#000000" points="1403,-102.5 1403,-132.5 1606,-132.5 1606,-102.5 1403,-102.5"/>
<text text-anchor="start" x="1410" y="-113.9" font-family="Arial" font-size="14.00" fill="#000000">disabled    </text>
<text text-anchor="start" x="1496.331" y="-113.9" font-family="Arial" font-size="14.00" fill="#666666">[tinyint(1)]</text>
<polygon fill="none" stroke="#000000" points="1403,-72.5 1403,-102.5 1606,-102.5 1606,-72.5 1403,-72.5"/>
<text text-anchor="start" x="1409.9993" y="-83.9" font-family="Arial" font-size="14.00" fill="#000000">ordername    </text>
<text text-anchor="start" x="1511.8815" y="-83.9" font-family="Arial" font-size="14.00" fill="#666666">[varchar(255)]</text>
<polygon fill="none" stroke="#000000" points="1403,-42.5 1403,-72.5 1606,-72.5 1606,-42.5 1403,-42.5"/>
<text text-anchor="start" x="1410" y="-53.9" font-family="Arial" font-size="14.00" fill="#000000">auth    </text>
<text text-anchor="start" x="1471.4432" y="-53.9" font-family="Arial" font-size="14.00" fill="#666666">[tinyint(1)]</text>
</g>
<!-- supermasters -->
<g id="node6" class="node">
<title>supermasters</title>
<polygon fill="#efefef" stroke="transparent" points="1710,-237.5 1710,-272.5 1960,-272.5 1960,-237.5 1710,-237.5"/>
<polygon fill="none" stroke="#000000" points="1710,-237.5 1710,-272.5 1960,-272.5 1960,-237.5 1710,-237.5"/>
<text text-anchor="start" x="1716.7111" y="-250.3" font-family="Arial Bold" font-size="18.00" fill="#000000">supermasters</text>
<text text-anchor="start" x="1825.7209" y="-250.3" font-family="Arial" font-size="14.00" fill="#000000">    </text>
<text text-anchor="start" x="1859.9257" y="-250.3" font-family="Arial" font-size="14.00" fill="#666666">[BASE TABLE]</text>
<polygon fill="none" stroke="#000000" points="1710,-207.5 1710,-237.5 1960,-237.5 1960,-207.5 1710,-207.5"/>
<text text-anchor="start" x="1717" y="-218.9" font-family="Arial" font-size="14.00" fill="#000000">ip    </text>
<text text-anchor="start" x="1762.094" y="-218.9" font-family="Arial" font-size="14.00" fill="#666666">[varchar(64)]</text>
<polygon fill="none" stroke="#000000" points="1710,-177.5 1710,-207.5 1960,-207.5 1960,-177.5 1710,-177.5"/>
<text text-anchor="start" x="1717" y="-188.9" font-family="Arial" font-size="14.00" fill="#000000">nameserver    </text>
<text text-anchor="start" x="1825.0996" y="-188.9" font-family="Arial" font-size="14.00" fill="#666666">[varchar(255)]</text>
<polygon fill="none" stroke="#000000" points="1710,-147.5 1710,-177.5 1960,-177.5 1960,-147.5 1710,-147.5"/>
<text text-anchor="start" x="1717" y="-158.9" font-family="Arial" font-size="14.00" fill="#000000">account    </text>
<text text-anchor="start" x="1800.2258" y="-158.9" font-family="Arial" font-size="14.00" fill="#666666">[varchar(40)]</text>
</g>
<!-- tsigkeys -->
<g id="node7" class="node">
<title>tsigkeys</title>
<polygon fill="#efefef" stroke="transparent" points="2064,-252.5 2064,-287.5 2270,-287.5 2270,-252.5 2064,-252.5"/>
<polygon fill="none" stroke="#000000" points="2064,-252.5 2064,-287.5 2270,-287.5 2270,-252.5 2064,-252.5"/>
<text text-anchor="start" x="2070.7116" y="-265.3" font-family="Arial Bold" font-size="18.00" fill="#000000">tsigkeys</text>
<text text-anchor="start" x="2135.7204" y="-265.3" font-family="Arial" font-size="14.00" fill="#000000">    </text>
<text text-anchor="start" x="2169.9252" y="-265.3" font-family="Arial" font-size="14.00" fill="#666666">[BASE TABLE]</text>
<polygon fill="none" stroke="#000000" points="2064,-222.5 2064,-252.5 2270,-252.5 2270,-222.5 2064,-222.5"/>
<text text-anchor="start" x="2071" y="-233.9" font-family="Arial" font-size="14.00" fill="#000000">id    </text>
<text text-anchor="start" x="2116.094" y="-233.9" font-family="Arial" font-size="14.00" fill="#666666">[int]</text>
<polygon fill="none" stroke="#000000" points="2064,-192.5 2064,-222.5 2270,-222.5 2270,-192.5 2064,-192.5"/>
<text text-anchor="start" x="2071" y="-203.9" font-family="Arial" font-size="14.00" fill="#000000">name    </text>
<text text-anchor="start" x="2140.2132" y="-203.9" font-family="Arial" font-size="14.00" fill="#666666">[varchar(255)]</text>
<polygon fill="none" stroke="#000000" points="2064,-162.5 2064,-192.5 2270,-192.5 2270,-162.5 2064,-162.5"/>
<text text-anchor="start" x="2071" y="-173.9" font-family="Arial" font-size="14.00" fill="#000000">algorithm    </text>
<text text-anchor="start" x="2162.7602" y="-173.9" font-family="Arial" font-size="14.00" fill="#666666">[varchar(50)]</text>
<polygon fill="none" stroke="#000000" points="2064,-132.5 2064,-162.5 2270,-162.5 2270,-132.5 2064,-132.5"/>
<text text-anchor="start" x="2071" y="-143.9" font-family="Arial" font-size="14.00" fill="#000000">secret    </text>
<text text-anchor="start" x="2143.3212" y="-143.9" font-family="Arial" font-size="14.00" fill="#666666">[varchar(255)]</text>
</g>
</g>
</svg>
